<?xml version="1.0"?><svg width="615.18396" height="879.36011" xmlns="http://www.w3.org/2000/svg">

 <metadata id="metadata4">image/svg+xml</metadata>
 <g>
  <title>Layer 1</title>
  <g id="layer1">
   <path fill="#000000" fill-rule="evenodd" stroke="#000000" stroke-width="0.511744px" id="path2244" d="m289.39032,0.255875c-87.79744,90.915977 15.127533,225.761246 -28.771179,236.368088c0,0 -54.491623,-86.371613 -116.555298,-77.280029c96.736008,129.110565 40.62532,210.029419 40.871063,209.120087c-60.549919,-75.763275 -138.479725,-77.393982 -121.094707,-65.16803c72.644543,51.087189 49.949978,187.904053 49.949978,187.904053c0,0 -77.20435,-66.67511 -113.534302,-31.824036c98.684341,50.120178 56.019161,107.57785 54.505421,177.28006c-3.329491,138.421875 83.29707,200.532959 98.972866,210.624023l-41.462463,0l0,31.824097l392.07135,0l0,-31.824097l-48.495422,0c31.180237,-13.44397 149.795746,-74.120667 158.992767,-222.736023c0,0 2.974731,-86.511658 -25.734192,-121.232025c-7.568787,31.820526 -27.252747,34.847992 -27.252747,34.847992c-12.109985,1.515259 16.655334,-71.416107 16.655334,-103.023987c0.000061,-72.748505 -51.468445,-100.016052 -51.468445,-100.016052c0,0 12.117737,80.304535 -33.294647,106.064056c-9.114624,-18.872101 26.277802,-225.588593 -102.93689,-266.68808c33.30246,68.186905 25.734222,93.952026 25.734222,93.952026c-0.000061,0 -3.249725,34.50058 -4.539459,25.76001c-9.89328,-67.042053 -69.642273,-131.824066 -69.642273,-131.824066c0,0 -33.184174,-28.784668 -52.970978,-162.128067zm89.302612,501.5522c18.164978,25.75943 0,154.543976 0,154.543976c30.274963,-9.091553 66.231262,-68.498047 74.181671,-77.279968c9.96344,-11.005493 4.537842,74.257629 -31.792114,110.624023c39.196472,-8.930481 59.02887,-40.912048 59.02887,-40.912048c0,0 -14.368347,141.957764 -181.64212,186.368042c-30.275024,18.183289 -189.951462,-81.167358 -102.936935,-234.864075c28.76123,134.858643 78.721207,134.864075 78.721207,134.864075c-0.000061,0 -37.841904,-121.217712 -4.539459,-157.584045c0,0 17.820648,64.559753 52.970978,69.696045c21.192413,-103.038086 56.007904,-145.456024 56.007904,-145.456024z"/>
  </g>
 </g>
</svg>